<?xml version="1.0" encoding="UTF-8" standalone="no"?>
<!-- Created with Inkscape (http://www.inkscape.org/) -->

<svg
   width="128"
   height="48"
   viewBox="0 0 33.866666 12.7"
   version="1.1"
   id="svg5"
   inkscape:version="1.2 (dc2aedaf03, 2022-05-15)"
   sodipodi:docname="drawing.svg"
   xml:space="preserve"
   inkscape:export-filename="icon.png"
   inkscape:export-xdpi="96"
   inkscape:export-ydpi="96"
   xmlns:inkscape="http://www.inkscape.org/namespaces/inkscape"
   xmlns:sodipodi="http://sodipodi.sourceforge.net/DTD/sodipodi-0.dtd"
   xmlns="http://www.w3.org/2000/svg"
   xmlns:svg="http://www.w3.org/2000/svg"><sodipodi:namedview
     id="namedview7"
     pagecolor="#505050"
     bordercolor="#ffffff"
     borderopacity="1"
     inkscape:showpageshadow="0"
     inkscape:pageopacity="0"
     inkscape:pagecheckerboard="false"
     inkscape:deskcolor="#505050"
     inkscape:document-units="mm"
     showgrid="false"
     inkscape:zoom="8"
     inkscape:cx="62.5"
     inkscape:cy="25.625"
     inkscape:window-width="1920"
     inkscape:window-height="1009"
     inkscape:window-x="-8"
     inkscape:window-y="-8"
     inkscape:window-maximized="1"
     inkscape:current-layer="layer1" /><defs
     id="defs2"><rect
       x="-0.11968355"
       y="-0.2393671"
       width="101.01292"
       height="48.591521"
       id="rect336" /><filter
       inkscape:collect="always"
       style="color-interpolation-filters:sRGB"
       id="filter3738"
       x="-7.3367045e-05"
       y="-0.00032931914"
       width="1.0001467"
       height="1.0006586"><feGaussianBlur
         inkscape:collect="always"
         stdDeviation="0.00076801744"
         id="feGaussianBlur3740" /></filter><filter
       inkscape:collect="always"
       style="color-interpolation-filters:sRGB"
       id="filter3742"
       x="-7.3367033e-05"
       y="-0.00032931927"
       width="1.0001467"
       height="1.0006586"><feGaussianBlur
         inkscape:collect="always"
         stdDeviation="0.0007680177"
         id="feGaussianBlur3744" /></filter><filter
       inkscape:collect="always"
       style="color-interpolation-filters:sRGB"
       id="filter5419"
       x="-0.00019364014"
       y="-8.6938018e-05"
       width="1.0003873"
       height="1.0001739"><feGaussianBlur
         inkscape:collect="always"
         stdDeviation="0.00041535865"
         id="feGaussianBlur5421" /></filter><filter
       inkscape:collect="always"
       style="color-interpolation-filters:sRGB"
       id="filter5423"
       x="-0.00018245289"
       y="-8.9399065e-05"
       width="1.0003649"
       height="1.0001788"><feGaussianBlur
         inkscape:collect="always"
         stdDeviation="0.00043147225"
         id="feGaussianBlur5425" /></filter></defs><g
     inkscape:label="Layer 1"
     inkscape:groupmode="layer"
     id="layer1"><rect
       style="display:inline;fill:#000000;stroke-width:0.264583"
       id="rect227"
       width="34.214115"
       height="13.166164"
       x="-0.17913149"
       y="-0.22391436"
       sodipodi:insensitive="true" /><g
       id="g4576"
       style="display:inline;fill:#2ad4ff;opacity:0.9;filter:url(#filter5419)"
       transform="translate(-0.1613522,0.29198184)"
       inkscape:label="blue"><path
         id="path4538"
         style="display:inline;fill:#2ad4ff;stroke-width:0.0257157"
         d="m 29.952694,4.1563354 v 0.907955 h 0.425297 v -0.907955 z m 1.931148,0 c -6.1e-5,0.036453 -4.76e-4,0.278604 -5.17e-4,0.907955 h 0.425297 l -5.17e-4,-0.907955 z m -3.664893,0.2439128 c -0.347798,0.00883 -0.627352,0.2942284 -0.627352,0.6438884 0,0.00688 0.0013,0.013333 0.0016,0.020154 h 1.284159 c 2.15e-4,-0.00682 0.0016,-0.013278 0.0016,-0.020154 0,-0.3551846 -0.28806,-0.6438884 -0.643371,-0.6438884 -0.0056,0 -0.01102,-1.401e-4 -0.01654,0 z" /><path
         id="path4540"
         style="display:inline;fill:#2ad4ff;stroke-width:0.0257157"
         d="m 27.899679,5.3175049 h 1.162203 c 0.03678,-0.07711 0.05812,-0.162535 0.06098,-0.2532145 h -1.284159 c 0.0029,0.09068 0.02422,0.1761042 0.06098,0.2532145 z" /><path
         id="path4542"
         style="display:inline;fill:#2ad4ff;stroke-width:0.0257157"
         d="m 28.022579,6.5205322 h 0.425297 c -4.5e-5,-0.4075921 -3.25e-4,-0.7666297 -5.17e-4,-0.8717814 0.162806,-0.057143 0.295546,-0.1773162 0.36897,-0.3312459 h -1.162203 c 0.07338,0.1539297 0.205781,0.2741028 0.368453,0.3312459 z" /><path
         id="path4544"
         style="display:inline;fill:#2ad4ff;stroke-width:0.0257157"
         d="m 28.901076,7.9142456 h 0.626318 L 28.690753,7.1225627 C 28.603393,7.01358 28.542218,6.8708192 28.538824,6.7241374 c 0,-0.1123476 1.1e-5,-0.1084118 0,-0.2036052 H 28.113527 V 6.711735 c 0,0.288067 0.157851,0.5897425 0.343131,0.7818644 l 5.17e-4,5.168e-4 c 0.0014,0.00126 0.254164,0.2405263 0.443901,0.4201294 z" /><path
         id="path4546"
         style="display:inline;fill:#2ad4ff;stroke-width:0.0257157"
         d="m 31.283625,10.843641 h -2.141988 c -0.0023,0.02881 -0.0036,0.05793 -0.0036,0.08733 0,0.593596 0.480938,1.07487 1.074353,1.07487 0.593595,0 1.074869,-0.481274 1.074869,-1.07487 0,-0.02941 -0.0013,-0.05852 -0.0036,-0.08733 z" /><path
         id="path4548"
         style="display:inline;fill:#2ad4ff;stroke-width:0.0257157"
         d="m 31.519523,10.359058 h -1.649511 c -0.138355,0.165514 -0.227645,0.373612 -0.24598,0.601513 h 2.141988 c -0.01835,-0.227943 -0.108028,-0.435986 -0.246497,-0.601513 z" /><path
         id="path4550"
         style="display:inline;fill:#2ad4ff;stroke-width:0.0257157"
         d="m 30.377991,9.1513794 h -0.436666 c 0.0064,0.032567 0.01057,0.065882 0.01137,0.099219 v 0.7441407 c -0.244137,0.04899 -0.458046,0.1803219 -0.611849,0.3643189 h 1.649511 C 30.836425,10.175047 30.622329,10.043207 30.377991,9.994222 V 9.2635173 c 0,-0.00189 1.08e-4,-0.00378 0,-0.00568 z" /><path
         id="path4552"
         style="display:inline;fill:#2ad4ff;stroke-width:0.0257157"
         d="m 30.907158,8.5498657 h -0.896586 c 0.110535,0.1046471 0.319877,0.3028239 0.319877,0.3028239 0.06738,0.084018 0.11841,0.188062 0.140043,0.2986898 h 0.436666 z" /><path
         id="path4554"
         style="display:inline;fill:#2ad4ff;stroke-width:0.0257157"
         d="M 30.591301,7.9142456 H 30.166004 V 8.4031047 L 29.649756,7.9142456 h -0.626318 c 0.286986,0.2716588 0.43929,0.4159921 0.671277,0.6356201 h 0.896586 z" /><path
         id="path4556"
         style="display:inline;fill:#2ad4ff;stroke-width:0.0257157"
         d="m 31.452861,3.554305 h 1.286743 V 2.7915609 h -1.286743 z" /><path
         id="path4558"
         style="display:inline;fill:#2ad4ff;stroke-width:0.0257157"
         d="m 29.952694,3.554305 v 0.6020304 h 0.425297 V 3.554305 Z m 1.500167,0 v 0.5245158 h 0.430981 c 0,0 5e-6,0.074403 0,0.077515 h 0.424263 v -0.077515 h 0.431499 V 3.554305 Z" /><path
         id="path4560"
         style="display:inline;fill:#2ad4ff;stroke-width:0.0257157"
         d="m 31.842501,5.3175049 h 0.438733 c 0.01738,-0.071155 0.02739,-0.1431243 0.02739,-0.2144572 v -0.038757 h -0.425297 c -2e-6,0.035461 0,0.013303 0,0.05116 -0.0016,0.069346 -0.01673,0.1376313 -0.04082,0.2020549 z" /><path
         id="path4562"
         style="display:inline;fill:#2ad4ff;stroke-width:0.0257157"
         d="m 30.667896,6.5205322 h 0.626318 c 0.333561,-0.3157401 0.668596,-0.633144 0.67076,-0.6351033 l 5.17e-4,-5.168e-4 c 0.13939,-0.1445561 0.262922,-0.3511636 0.315743,-0.5674072 h -0.438733 c -0.02688,0.07187 -0.06504,0.1389289 -0.111105,0.1963704 z" /><path
         id="path4564"
         style="display:inline;fill:#2ad4ff;stroke-width:0.0257157"
         d="M 30.541707,6.5205322 H 30.11641 v 1.3937134 h 0.425297 V 7.6408773 c 0.0037,-0.1462967 0.0646,-0.2882263 0.151928,-0.396875 0,0 0.384269,-0.3637474 0.764295,-0.7234701 h -0.626318 l -0.289905,0.2744019 z" /><path
         id="path4566"
         style="display:inline;fill:#2ad4ff;stroke-width:0.0257157"
         d="m 30.377991,5.3175049 h -0.425297 v 1.2030273 h 0.425297 z" /><path
         id="path4568"
         style="display:inline;fill:#2ad4ff;stroke-width:0.0257157"
         d="m 30.377991,5.0642904 h -0.425297 v 0.2532145 h 0.425297 z" /><path
         id="path4570"
         style="display:inline;fill:#2ad4ff;stroke-width:0.0257157"
         d="M 30.377991,1.8350301 H 29.952694 V 3.554305 h 0.425297 z" /><path
         id="path4572"
         style="display:inline;fill:#2ad4ff;stroke-width:0.0257157"
         d="m 31.296798,1.5239382 h -1.203544 l -0.141077,0.2444295 h 0.529684 v 0.00879 h 0.425297 v -0.00879 h 0.530717 z" /><path
         id="path4574"
         style="display:inline;fill:#2ad4ff;stroke-width:0.0257157"
         d="m 30.166117,0.53950195 -0.60203,1.04231365 h 1.203544 z" /></g><path
       id="path3725"
       style="font-weight:bold;font-size:29.3333px;font-family:Consolas;-inkscape-font-specification:'Consolas Bold';white-space:pre;display:inline;opacity:0.9;fill:#1cd1ff;fill-opacity:1;stroke-width:0.264583;filter:url(#filter3742)"
       d="m 6.9675334,3.8354248 c -0.07997,0.00191 -0.1558047,0.018302 -0.2268596,0.049093 -0.07327,0.030317 -0.1376899,0.07361 -0.1932698,0.1291911 -0.05305,0.055581 -0.09474,0.1200044 -0.125057,0.1932699 -0.02981,0.072037 -0.044985,0.1486826 -0.045475,0.2304768 h 0.2216919 c -8.5e-6,0.0014 0,0.00274 0,0.00413 0,0.083371 0.015158,0.1618624 0.045475,0.2351277 0.030317,0.073266 0.072003,0.1376892 0.125057,0.1932699 0.055581,0.053054 0.1200044,0.095831 0.1932698,0.1286743 0.075792,0.030317 0.1569819,0.045475 0.2428792,0.045475 0.085898,0 0.1654797,-0.015159 0.2387452,-0.045475 0.073265,-0.032843 0.1360814,-0.07562 0.1891357,-0.1286743 0.055581,-0.055581 0.098874,-0.1200043 0.1291911,-0.1932699 0.030317,-0.073266 0.045475,-0.1517569 0.045475,-0.2351277 0,-0.0014 8.6e-6,-0.00274 0,-0.00413 H 7.5861003 c -5e-4,-0.081796 -0.015675,-0.1584402 -0.045475,-0.2304772 -0.03032,-0.073266 -0.07361,-0.1376896 -0.1291911,-0.1932699 -0.05305,-0.055581 -0.1158708,-0.098874 -0.1891357,-0.1291911 -0.07327,-0.032843 -0.1528482,-0.049093 -0.2387451,-0.049093 -0.0054,0 -0.01069,-1.27e-4 -0.01602,4e-7 z m 8.5338466,0 c -0.07992,0.00191 -0.155288,0.018302 -0.226343,0.049093 -0.07327,0.030317 -0.137689,0.07361 -0.193269,0.1291911 -0.05306,0.055581 -0.09474,0.1200044 -0.125057,0.1932699 -0.0298,0.072037 -0.04498,0.1486826 -0.04548,0.2304768 h 0.221692 c -8e-6,0.0014 0,0.00274 0,0.00413 0,0.083371 0.01517,0.1618624 0.04548,0.2351277 0.03032,0.073266 0.072,0.1376893 0.125057,0.1932699 0.05558,0.053054 0.120004,0.095831 0.19327,0.1286743 0.07579,0.030317 0.156466,0.045475 0.242363,0.045475 0.0859,0 0.165479,-0.015159 0.238745,-0.045475 0.07327,-0.032843 0.136599,-0.07562 0.189652,-0.1286743 0.05558,-0.055581 0.09836,-0.1200043 0.128675,-0.1932699 0.03032,-0.073266 0.04547,-0.1517569 0.04547,-0.2351277 0,-0.0014 8e-6,-0.00274 0,-0.00413 h -0.221692 c -5e-4,-0.081795 -0.01567,-0.1584398 -0.04547,-0.2304768 -0.03032,-0.073266 -0.07309,-0.1376896 -0.128674,-0.1932699 -0.05306,-0.055581 -0.116387,-0.098874 -0.189653,-0.1291911 -0.07327,-0.032843 -0.152848,-0.049093 -0.238745,-0.049093 -0.0054,0 -0.01069,-1.27e-4 -0.01602,0 z m -14.5624191,0.557072 -0.00207,0.044958 h 0.2216918 l -0.044442,0.907955 H 1.679484 L 1.6670817,5.5986247 H 1.3456543 L 1.2867432,6.801652 H 1.0428304 L 0.97461758,8.1953654 0.9436117,8.8309855 H 1.1875244 L 1.162203,9.3456828 H 1.9538859 L 1.9693888,8.8309855 H 1.7254761 L 1.7440791,8.1953654 1.7854201,6.801652 h 0.2439128 l 0.00878,-0.2795695 0.022221,-0.9234578 h 0.050643 L 2.2722127,6.1851522 2.453597,6.801652 H 2.2096842 L 2.5249105,7.8713542 H 3.1083374 L 3.4571533,6.801652 H 3.7010661 L 3.9020874,6.1851522 4.0865723,5.5986247 h 0.059428 l 0.028939,0.9461955 0.00878,0.2568318 H 3.9392944 l 0.045475,1.3937134 0.020671,0.6356201 h 0.2439127 l 0.016537,0.5146973 h 0.822172 L 5.0622233,8.8309855 H 4.8183105 L 4.7867879,8.1953654 4.7175415,6.801652 H 4.9614543 L 4.9015096,5.5986247 H 5.222937 L 5.2105347,5.3454102 H 4.6451945 L 4.5997192,4.4374552 H 4.3780273 l -0.00207,-0.044958 h -1.072286 l -0.013953,0.044958 H 3.5114136 L 3.2246094,5.3454102 H 3.7899495 L 3.7098511,5.5986247 H 3.3884237 L 3.310909,5.8440877 3.1021362,6.5902954 2.8938802,5.7986125 2.8318685,5.5986247 H 3.1532959 L 3.0747477,5.3454102 H 2.5094075 L 2.2282878,4.4374552 H 2.0065959 l -0.013953,-0.044958 z m 11.4509811,1.019576 c -0.13097,0.00178 -0.249469,0.017054 -0.35605,0.045475 -0.113686,0.030317 -0.219801,0.074184 -0.318327,0.1322917 -0.0049,0.00276 -0.0096,0.00596 -0.01447,0.00879 h -0.32091 c -0.09308,0.054015 -0.180878,0.1190175 -0.262517,0.1958537 -0.08337,0.080845 -0.164044,0.1707048 -0.242362,0.2692342 l -0.0186,-0.4650879 h 0.320911 l -0.0041,-0.1033577 H 10.374045 V 5.5986247 H 10.052617 V 6.801652 H 9.808703 v 1.3937134 0.6356201 h 0.243914 v 0.5146973 h 0.925008 V 8.8309855 H 10.733196 V 8.1953654 6.9086222 c 0.02761,-0.037697 0.05456,-0.072019 0.08165,-0.1069702 h 0.244429 c 0.129051,-0.166489 0.252039,-0.3038414 0.36897,-0.4082438 0.144005,-0.1263196 0.294498,-0.1896525 0.451135,-0.1896525 0.304276,0 0.460465,0.1998645 0.469222,0.5978963 h -0.244429 c 2.58e-4,0.011769 0.001,0.023024 0.001,0.03514 v 1.3585734 0.6356201 h 0.243913 v 0.5146973 h 0.924491 V 8.8309855 H 13.029696 V 8.1953654 6.801652 h 0.243913 V 6.760828 c 0,-0.2046376 -0.02493,-0.3887223 -0.07545,-0.5529378 -0.048,-0.1667417 -0.121096,-0.3085663 -0.219625,-0.4247803 -0.05967,-0.071906 -0.128453,-0.1329613 -0.205672,-0.1844848 h 0.32091 c -0.0503,-0.033559 -0.103951,-0.063455 -0.161747,-0.088367 -0.146531,-0.065686 -0.318671,-0.098185 -0.515731,-0.098185 -0.0088,0 -0.01763,-1.185e-4 -0.02636,0 z m 12.36152,0 c -0.260216,0 -0.511427,0.023829 -0.75396,0.07183 -0.161223,0.032245 -0.30879,0.071077 -0.444934,0.1147217 h -0.321427 c -0.06653,0.021327 -0.130665,0.04313 -0.191203,0.067179 v 0.738973 c 0.207163,-0.093477 0.420475,-0.1654796 0.640271,-0.2160075 0.222321,-0.053055 0.447519,-0.079582 0.674894,-0.079582 0.144005,0 0.264756,0.015159 0.363286,0.045475 0.09853,0.030317 0.178112,0.073094 0.238745,0.1286743 0.06316,0.055581 0.109149,0.1237944 0.136942,0.2046387 0.02779,0.078318 0.04083,0.1670876 0.04083,0.2656168 v 0.048059 h -0.243913 v 0.1829346 h -0.503845 c -0.318326,0 -0.596059,0.031408 -0.833541,0.094568 -0.234954,0.06316 -0.432016,0.1503215 -0.591179,0.2614827 -0.156634,0.1111613 -0.274115,0.243799 -0.352433,0.3979085 -0.06908,0.1404776 -0.106543,0.2932003 -0.112654,0.4568197 -5.94e-4,0.015878 -10e-4,0.031452 -10e-4,0.047542 0,0.1768472 0.02492,0.3381942 0.07545,0.484725 0.01294,0.035745 0.02758,0.070163 0.04341,0.1033528 h 0.244429 c 0.04906,0.1028642 0.111182,0.1935041 0.187586,0.2718181 0.101055,0.1035818 0.226114,0.1847719 0.375171,0.2428792 0.149058,0.058107 0.321774,0.086816 0.518831,0.086816 0.149058,0 0.286001,-0.015159 0.409794,-0.045475 0.12632,-0.02779 0.242707,-0.067868 0.348816,-0.1209228 0.106109,-0.053054 0.203033,-0.1152961 0.291455,-0.1860352 0.08842,-0.073266 0.173404,-0.1528478 0.254248,-0.2387451 l 0.02274,0.504362 h 0.7922 V 8.8309855 h -0.24443 V 8.1953654 6.801652 h 0.243913 v -0.0863 c 0,-0.2172696 -0.03141,-0.4067516 -0.09457,-0.5684408 C 25.902224,5.982696 25.803693,5.8462688 25.669795,5.7376339 25.605485,5.6844519 25.532001,5.6384439 25.45017,5.5986243 h 0.320911 c -0.08536,-0.04152 -0.179807,-0.076271 -0.284264,-0.1033525 -0.204638,-0.05558 -0.449873,-0.083199 -0.735355,-0.083199 z m -4.670516,0.00723 c -0.08425,0.00133 -0.160758,0.012791 -0.229444,0.034106 -0.07074,0.022737 -0.137347,0.060634 -0.200504,0.1136882 -0.01217,0.00973 -0.02428,0.020644 -0.03617,0.031523 h -0.32091 c -0.04986,0.045596 -0.09724,0.1006094 -0.142111,0.1658813 -0.05558,0.080845 -0.111335,0.1777675 -0.166915,0.2914551 L 18.972492,5.59862 h 0.320911 l -0.0026,-0.1033529 H 18.605057 V 5.59862 h -0.320911 v 1.2030273 h -0.244429 v 1.3937134 0.6356201 h 0.244429 v 0.514702 h 0.798928 V 8.8309855 H 18.839161 V 8.1953654 6.8481608 c 0.0065,-0.016755 0.01272,-0.030394 0.01912,-0.046509 h 0.243913 c 0.09099,-0.2292845 0.174578,-0.3964362 0.250114,-0.495577 0.08084,-0.1061085 0.153939,-0.1591634 0.219625,-0.1591634 0.05053,0 0.09164,0.012977 0.121956,0.038241 0.03031,0.022737 0.05254,0.057935 0.0677,0.1059367 0.01515,0.048002 0.02491,0.1086358 0.02997,0.181901 0.0051,0.070739 0.0083,0.1541111 0.0083,0.2501139 v 0.078548 h -0.24443 v 1.3937134 0.6356201 h 0.243913 v 0.5146973 h 0.7922 V 8.8309855 H 20.347596 V 8.1953654 6.8481608 c 0.0063,-0.016711 0.01189,-0.030435 0.01809,-0.046509 h 0.244429 c 0.08844,-0.2293508 0.168434,-0.3964179 0.239262,-0.495577 0.07579,-0.1061085 0.153194,-0.1591634 0.231511,-0.1591634 0.05053,0 0.08951,0.012977 0.117305,0.038241 0.03031,0.022737 0.05305,0.057935 0.06821,0.1059367 0.01515,0.048002 0.02542,0.1086358 0.03049,0.181901 0.0051,0.070739 0.0072,0.1541111 0.0072,0.2501139 v 0.078548 h -0.24443 v 1.3937134 0.6356201 h 0.243913 v 0.5146973 h 0.799951 V 8.8309855 H 21.859648 V 8.1953654 6.801652 h 0.24443 V 6.5830607 c 0,-0.3840113 -0.06712,-0.6736321 -0.201021,-0.868164 -0.02988,-0.043979 -0.06409,-0.082108 -0.101286,-0.116272 h 0.32091 C 21.993211,5.479713 21.820142,5.4193075 21.6023,5.4193075 c -0.0057,0 -0.01143,-8.89e-5 -0.01705,0 -0.08438,0.00133 -0.162006,0.012791 -0.233061,0.034106 -0.07327,0.022737 -0.142569,0.060634 -0.208256,0.1136882 -0.01217,0.00973 -0.02411,0.020644 -0.03617,0.031523 h -0.32091 c -0.05056,0.045596 -0.100391,0.1006094 -0.149345,0.1658813 -0.05811,0.080845 -0.117651,0.1777675 -0.178284,0.2914551 -0.01478,-0.1945363 -0.07662,-0.3468068 -0.185002,-0.4573364 h 0.320911 c -0.0028,-0.00287 -0.0054,-0.00597 -0.0083,-0.00879 -0.111162,-0.1136874 -0.274118,-0.1705322 -0.488859,-0.1705322 -0.0057,0 -0.01144,-8.89e-5 -0.01705,0 z m -17.6955619,0.00775 0.047026,0.1715658 h -0.05116 z m 2.0768758,0 0.00517,0.1715658 h -0.05943 z m 1.7998902,0.068219 V 5.5986247 H 5.9407226 V 6.2151245 H 7.0285115 V 6.801652 H 6.7845988 V 8.1953654 8.6253133 H 5.5640015 V 8.8309855 H 5.8079142 V 9.3456828 H 9.0862671 V 8.8309855 H 8.8423543 V 8.6253133 H 7.7318278 V 8.1953654 6.801652 H 7.9757406 V 5.5986247 H 8.297168 V 5.4952718 Z m 8.5343639,0 v 0.1033529 h -0.321428 v 0.6164998 h 1.087789 V 6.801652 h -0.244429 v 1.3937134 0.4299479 h -1.220081 v 0.2056722 h 0.243913 v 0.5146973 h 3.277836 V 8.8309855 H 17.376201 V 8.6253133 h -1.11001 V 8.1953654 6.801652 h 0.243913 V 5.5986247 h 0.321428 V 5.4952718 Z m 9.530167,2.1487061 h 0.564307 v 0.515214 c -0.01217,0.012726 -0.02363,0.023874 -0.03566,0.036174 -0.152666,0.1561669 -0.293905,0.279217 -0.422713,0.3658691 -0.138951,0.093477 -0.272681,0.1400432 -0.401526,0.1400432 -0.174322,0 -0.312355,-0.040595 -0.413411,-0.1214396 -0.101056,-0.083371 -0.151412,-0.2030319 -0.151412,-0.359668 0,-0.00839 6.85e-4,-0.016523 10e-4,-0.024805 0.0029,-0.06902 0.01738,-0.134432 0.04444,-0.1953369 0.03284,-0.070739 0.0832,-0.1324641 0.151412,-0.1855184 0.06821,-0.053054 0.156983,-0.09474 0.265617,-0.125057 0.108635,-0.030317 0.241271,-0.045475 0.397908,-0.045475 z" /><g
       inkscape:label="Layer 1"
       id="layer1-2" /><g
       id="g4616"
       style="display:inline;opacity:0.9;fill:#ff2a2a;filter:url(#filter5423)"
       transform="translate(0.23151044,-0.23151044)"
       inkscape:label="red"><path
         id="path4578"
         style="display:inline;fill:#ff2a2a;stroke-width:0.0257157"
         d="m 29.730527,4.1563354 v 0.907955 h 0.425297 v -0.907955 z m 1.931148,0 c -6.1e-5,0.036453 -4.76e-4,0.278604 -5.17e-4,0.907955 h 0.425297 l -5.17e-4,-0.907955 z m -3.664893,0.2439128 c -0.347798,0.00883 -0.627352,0.2942284 -0.627352,0.6438884 0,0.00688 0.0013,0.013333 0.0016,0.020154 h 1.284159 c 2.15e-4,-0.00682 0.0016,-0.013278 0.0016,-0.020154 0,-0.3551846 -0.28806,-0.6438884 -0.643371,-0.6438884 -0.0056,0 -0.01102,-1.401e-4 -0.01654,0 z" /><path
         id="path4580"
         style="display:inline;fill:#ff2a2a;stroke-width:0.0257157"
         d="m 27.124959,5.3175049 h 1.162203 c 0.03678,-0.07711 0.05812,-0.162535 0.06098,-0.2532145 h -1.284159 c 0.0029,0.09068 0.02422,0.1761042 0.06098,0.2532145 z" /><path
         id="path4582"
         style="display:inline;fill:#ff2a2a;stroke-width:0.0257157"
         d="m 28.022579,6.5205322 h 0.425297 c -4.5e-5,-0.4075921 -3.25e-4,-0.7666297 -5.17e-4,-0.8717814 0.162806,-0.057143 0.295546,-0.1773162 0.36897,-0.3312459 h -1.162203 c 0.07338,0.1539297 0.205781,0.2741028 0.368453,0.3312459 z" /><path
         id="path4584"
         style="display:inline;fill:#ff2a2a;stroke-width:0.0257157"
         d="m 28.587961,7.9142456 h 0.626318 L 28.377638,7.1225627 C 28.290278,7.01358 28.229103,6.8708192 28.225709,6.7241374 c 0,-0.1123476 1.1e-5,-0.1084118 0,-0.2036052 H 27.800412 V 6.711735 c 0,0.288067 0.157851,0.5897425 0.343131,0.7818644 l 5.17e-4,5.168e-4 c 0.0014,0.00126 0.254164,0.2405263 0.443901,0.4201294 z" /><path
         id="path4586"
         style="display:inline;fill:#ff2a2a;stroke-width:0.0257157"
         d="m 31.190081,10.960571 h -2.141988 c -0.0023,0.02881 -0.0036,0.05793 -0.0036,0.08733 0,0.593596 0.480938,1.07487 1.074353,1.07487 0.593595,0 1.074869,-0.481274 1.074869,-1.07487 0,-0.02941 -0.0013,-0.05852 -0.0036,-0.08733 z" /><path
         id="path4588"
         style="display:inline;fill:#ff2a2a;stroke-width:0.0257157"
         d="M 31.445111,10.359058 H 29.7956 c -0.138355,0.165514 -0.227645,0.373612 -0.24598,0.601513 h 2.141988 c -0.01835,-0.227943 -0.108028,-0.435986 -0.246497,-0.601513 z" /><path
         id="path4590"
         style="display:inline;fill:#ff2a2a;stroke-width:0.0257157"
         d="m 30.377991,9.1513794 h -0.436666 c 0.0064,0.032567 0.01057,0.065882 0.01137,0.099219 v 0.7441407 c -0.244137,0.04899 -0.458046,0.1803219 -0.611849,0.3643189 h 1.649511 C 30.836425,10.175047 30.622329,10.043207 30.377991,9.994222 V 9.2635173 c 0,-0.00189 1.08e-4,-0.00378 0,-0.00568 z" /><path
         id="path4592"
         style="display:inline;fill:#ff2a2a;stroke-width:0.0257157"
         d="m 30.907158,8.5498657 h -0.896586 c 0.110535,0.1046471 0.319877,0.3028239 0.319877,0.3028239 0.06738,0.084018 0.11841,0.188062 0.140043,0.2986898 h 0.436666 z" /><path
         id="path4594"
         style="display:inline;fill:#ff2a2a;stroke-width:0.0257157"
         d="M 30.377991,7.9142456 H 29.952694 V 8.4031047 L 29.436446,7.9142456 h -0.626318 c 0.286986,0.2716588 0.43929,0.4159921 0.671277,0.6356201 h 0.896586 z" /><path
         id="path4596"
         style="display:inline;fill:#ff2a2a;stroke-width:0.0257157"
         d="m 31.452861,3.554305 h 1.286743 V 2.7915609 h -1.286743 z" /><path
         id="path4598"
         style="display:inline;fill:#ff2a2a;stroke-width:0.0257157"
         d="m 29.952694,3.554305 v 0.6020304 h 0.425297 V 3.554305 Z m 1.500167,0 v 0.5245158 h 0.430981 c 0,0 5e-6,0.074403 0,0.077515 h 0.424263 v -0.077515 h 0.431499 V 3.554305 Z" /><path
         id="path4600"
         style="display:inline;fill:#ff2a2a;stroke-width:0.0257157"
         d="m 31.842501,5.3175049 h 0.438733 c 0.01738,-0.071155 0.02739,-0.1431243 0.02739,-0.2144572 v -0.038757 h -0.425297 c -2e-6,0.035461 0,0.013303 0,0.05116 -0.0016,0.069346 -0.01673,0.1376313 -0.04082,0.2020549 z" /><path
         id="path4602"
         style="display:inline;fill:#ff2a2a;stroke-width:0.0257157"
         d="m 30.667896,6.5205322 h 0.626318 c 0.333561,-0.3157401 0.668596,-0.633144 0.67076,-0.6351033 l 5.17e-4,-5.168e-4 c 0.13939,-0.1445561 0.262922,-0.3511636 0.315743,-0.5674072 h -0.438733 c -0.02688,0.07187 -0.06504,0.1389289 -0.111105,0.1963704 z" /><path
         id="path4604"
         style="display:inline;fill:#ff2a2a;stroke-width:0.0257157"
         d="m 30.377991,6.5205322 h -0.425297 v 1.3937134 h 0.425297 V 7.6408773 c 0.0037,-0.1462967 0.0646,-0.2882263 0.151928,-0.396875 0,0 0.384269,-0.3637474 0.764295,-0.7234701 h -0.626318 l -0.289905,0.2744019 z" /><path
         id="path4606"
         style="display:inline;fill:#ff2a2a;stroke-width:0.0257157"
         d="m 30.377991,5.3175049 h -0.425297 v 1.2030273 h 0.425297 z" /><path
         id="path4608"
         style="display:inline;fill:#ff2a2a;stroke-width:0.0257157"
         d="m 30.377991,5.0642904 h -0.425297 v 0.2532145 h 0.425297 z" /><path
         id="path4610"
         style="display:inline;fill:#ff2a2a;stroke-width:0.0257157"
         d="M 30.377991,1.8350301 H 29.952694 V 3.554305 h 0.425297 z" /><path
         id="path4612"
         style="display:inline;fill:#ff2a2a;stroke-width:0.0257157"
         d="m 31.296798,1.6562294 h -1.203544 l -0.141077,0.2444295 h 0.529684 v 0.00879 h 0.425297 v -0.00879 h 0.530717 z" /><path
         id="path4614"
         style="display:inline;fill:#ff2a2a;stroke-width:0.0257157"
         d="m 30.166117,0.53950195 -0.60203,1.04231365 h 1.203544 z" /></g><g
       id="g4536"
       style="display:inline"><path
         id="path1334"
         style="display:inline;fill:#ffffff;stroke-width:0.0257157"
         d="m 29.952694,4.1563354 v 0.907955 h 0.425297 v -0.907955 z m 1.931148,0 c -6.1e-5,0.036453 -4.76e-4,0.278604 -5.17e-4,0.907955 h 0.425297 l -5.17e-4,-0.907955 z m -3.664893,0.2439128 c -0.347798,0.00883 -0.627352,0.2942284 -0.627352,0.6438884 0,0.00688 0.0013,0.013333 0.0016,0.020154 h 1.284159 c 2.15e-4,-0.00682 0.0016,-0.013278 0.0016,-0.020154 0,-0.3551846 -0.28806,-0.6438884 -0.643371,-0.6438884 -0.0056,0 -0.01102,-1.401e-4 -0.01654,0 z" /><path
         id="path4512"
         style="display:inline;fill:#ffffff;stroke-width:0.0257157"
         d="m 27.124959,5.3175049 h 1.162203 c 0.03678,-0.07711 0.05812,-0.162535 0.06098,-0.2532145 h -1.284159 c 0.0029,0.09068 0.02422,0.1761042 0.06098,0.2532145 z" /><path
         id="path4510"
         style="display:inline;fill:#ffffff;stroke-width:0.0257157"
         d="m 28.022579,6.5205322 h 0.425297 c -4.5e-5,-0.4075921 -3.25e-4,-0.7666297 -5.17e-4,-0.8717814 0.162806,-0.057143 0.295546,-0.1773162 0.36897,-0.3312459 h -1.162203 c 0.07338,0.1539297 0.205781,0.2741028 0.368453,0.3312459 z" /><path
         id="path4508"
         style="display:inline;fill:#ffffff;stroke-width:0.0257157"
         d="m 28.992024,7.9142456 h 0.626318 L 28.781701,7.1225627 C 28.694341,7.01358 28.633166,6.8708192 28.629772,6.7241374 c 0,-0.1123476 1.1e-5,-0.1084118 0,-0.2036052 H 28.204475 V 6.711735 c 0,0.288067 0.157851,0.5897425 0.343131,0.7818644 l 5.17e-4,5.168e-4 c 0.0014,0.00126 0.254164,0.2405263 0.443901,0.4201294 z" /><path
         id="path4506"
         style="display:inline;fill:#ffffff;stroke-width:0.0257157"
         d="m 31.190081,11.068055 h -2.141988 c -0.0023,0.02881 -0.0036,0.05793 -0.0036,0.08733 0,0.593596 0.480938,1.07487 1.074353,1.07487 0.593595,0 1.074869,-0.481274 1.074869,-1.07487 0,-0.02941 -0.0013,-0.05852 -0.0036,-0.08733 z" /><path
         id="path4504"
         style="display:inline;fill:#ffffff;stroke-width:0.0257157"
         d="m 31.560863,10.416934 h -1.649511 c -0.138355,0.165514 -0.227645,0.373612 -0.24598,0.601513 h 2.141988 c -0.01835,-0.227943 -0.108028,-0.435986 -0.246497,-0.601513 z" /><path
         id="path4502"
         style="display:inline;fill:#ffffff;stroke-width:0.0257157"
         d="m 30.377991,9.1513794 h -0.436666 c 0.0064,0.032567 0.01057,0.065882 0.01137,0.099219 v 0.7441407 c -0.244137,0.04899 -0.458046,0.1803219 -0.611849,0.3643189 h 1.649511 C 30.836425,10.175047 30.622329,10.043207 30.377991,9.994222 V 9.2635173 c 0,-0.00189 1.08e-4,-0.00378 0,-0.00568 z" /><path
         id="path4500"
         style="display:inline;fill:#ffffff;stroke-width:0.0257157"
         d="m 30.907158,8.5498657 h -0.896586 c 0.110535,0.1046471 0.319877,0.3028239 0.319877,0.3028239 0.06738,0.084018 0.11841,0.188062 0.140043,0.2986898 h 0.436666 z" /><path
         id="path4498"
         style="display:inline;fill:#ffffff;stroke-width:0.0257157"
         d="M 30.377991,7.9142456 H 29.952694 V 8.4031047 L 29.436446,7.9142456 h -0.626318 c 0.286986,0.2716588 0.43929,0.4159921 0.671277,0.6356201 h 0.896586 z" /><path
         id="path4496"
         style="display:inline;fill:#ffffff;stroke-width:0.0257157"
         d="m 31.523019,3.472454 h 1.286743 V 2.7097099 h -1.286743 z" /><path
         id="path4494"
         style="display:inline;fill:#ffffff;stroke-width:0.0257157"
         d="M 29.522743,3.554305 V 4.1563354 H 29.94804 V 3.554305 Z m 1.500167,0 v 0.5245158 h 0.430981 c 0,0 5e-6,0.074403 0,0.077515 h 0.424263 v -0.077515 h 0.431499 V 3.554305 Z" /><path
         id="path4490"
         style="display:inline;fill:#ffffff;stroke-width:0.0257157"
         d="m 31.313334,5.3175049 h 0.438733 c 0.01738,-0.071155 0.02739,-0.1431243 0.02739,-0.2144572 V 5.0642907 H 31.35416 c -2e-6,0.035461 0,0.013303 0,0.05116 -0.0016,0.069346 -0.01673,0.1376313 -0.04082,0.2020549 z" /><path
         id="path4488"
         style="display:inline;fill:#ffffff;stroke-width:0.0257157"
         d="m 30.667896,6.5205322 h 0.626318 c 0.333561,-0.3157401 0.668596,-0.633144 0.67076,-0.6351033 l 5.17e-4,-5.168e-4 c 0.13939,-0.1445561 0.262922,-0.3511636 0.315743,-0.5674072 h -0.438733 c -0.02688,0.07187 -0.06504,0.1389289 -0.111105,0.1963704 z" /><path
         id="path4486"
         style="display:inline;fill:#ffffff;stroke-width:0.0257157"
         d="m 30.592959,6.5205322 h -0.425297 v 1.3937134 h 0.425297 V 7.6408773 c 0.0037,-0.1462967 0.0646,-0.2882263 0.151928,-0.396875 0,0 0.384269,-0.3637474 0.764295,-0.7234701 h -0.626318 l -0.289905,0.2744019 z" /><path
         id="path4484"
         style="display:inline;fill:#ffffff;stroke-width:0.0257157"
         d="m 30.377991,5.3175049 h -0.425297 v 1.2030273 h 0.425297 z" /><path
         id="path4482"
         style="display:inline;fill:#ffffff;stroke-width:0.0257157"
         d="m 29.848824,5.0642904 h -0.425297 v 0.2532145 h 0.425297 z" /><path
         id="path4476"
         style="display:inline;fill:#ffffff;stroke-width:0.0257157"
         d="M 30.377991,1.8350301 H 29.952694 V 3.554305 h 0.425297 z" /><path
         id="path4474"
         style="display:inline;fill:#ffffff;stroke-width:0.0257157"
         d="m 31.296798,1.5818156 h -1.203544 l -0.141077,0.2444295 h 0.529684 v 0.00879 h 0.425297 v -0.00879 h 0.530717 z" /><path
         id="path4472"
         style="display:inline;fill:#ffffff;stroke-width:0.0257157"
         d="m 30.166117,0.46934371 -0.60203,1.04231389 h 1.203544 z" /></g><path
       id="path3728"
       style="font-weight:bold;font-size:29.3333px;font-family:Consolas;-inkscape-font-specification:'Consolas Bold';white-space:pre;display:inline;opacity:0.9;fill:#ff3e3e;fill-opacity:1;stroke-width:0.264583;filter:url(#filter3738)"
       d="m 7.501888,3.3010702 c -0.07997,0.00191 -0.1558047,0.018302 -0.2268596,0.049093 -0.07327,0.030317 -0.1376899,0.07361 -0.1932698,0.1291911 -0.05305,0.055581 -0.09474,0.1200044 -0.125057,0.1932699 -0.02981,0.072037 -0.044985,0.1486826 -0.045475,0.2304768 h 0.2216919 c -8.5e-6,0.0014 0,0.00274 0,0.00413 0,0.083371 0.015158,0.1618624 0.045475,0.2351277 0.030317,0.073266 0.072003,0.1376892 0.125057,0.1932699 0.055581,0.053054 0.1200044,0.095831 0.1932698,0.1286743 0.075792,0.030317 0.1569819,0.045475 0.2428792,0.045475 0.085898,0 0.1654797,-0.015159 0.2387452,-0.045475 0.073265,-0.032843 0.1360814,-0.07562 0.1891357,-0.1286743 0.055581,-0.055581 0.098874,-0.1200043 0.1291911,-0.1932699 0.030317,-0.073266 0.045475,-0.1517569 0.045475,-0.2351277 0,-0.0014 8.6e-6,-0.00274 0,-0.00413 H 8.1204549 C 8.1199549,3.821305 8.1047799,3.7446608 8.0749799,3.6726238 8.0446599,3.5993578 8.0013699,3.5349342 7.9457888,3.4793539 7.8927388,3.4237729 7.829918,3.3804799 7.7566531,3.3501628 7.6833831,3.3173198 7.6038049,3.3010698 7.517908,3.3010698 c -0.0054,0 -0.01069,-1.27e-4 -0.01602,4e-7 z m 8.533843,0 c -0.07992,0.00191 -0.155288,0.018302 -0.226343,0.049093 -0.07327,0.030317 -0.137689,0.07361 -0.193269,0.1291911 -0.05306,0.055581 -0.09474,0.1200044 -0.125057,0.1932699 -0.0298,0.072037 -0.04498,0.1486826 -0.04548,0.2304768 h 0.221692 c -8e-6,0.0014 0,0.00274 0,0.00413 0,0.083371 0.01517,0.1618624 0.04547,0.2351277 0.03032,0.073266 0.072,0.1376893 0.125057,0.1932699 0.05558,0.053054 0.120004,0.095831 0.19327,0.1286743 0.07579,0.030317 0.156466,0.045475 0.242363,0.045475 0.0859,0 0.165479,-0.015159 0.238745,-0.045475 0.07327,-0.032843 0.136599,-0.07562 0.189652,-0.1286743 0.05558,-0.055581 0.09836,-0.1200043 0.128675,-0.1932699 0.03032,-0.073266 0.04547,-0.1517569 0.04547,-0.2351277 0,-0.0014 8e-6,-0.00274 0,-0.00413 h -0.221692 c -5e-4,-0.081795 -0.01568,-0.1584398 -0.04547,-0.2304768 -0.03032,-0.073266 -0.07309,-0.1376896 -0.128674,-0.1932699 -0.05306,-0.055581 -0.116387,-0.098874 -0.189653,-0.1291911 -0.07327,-0.032843 -0.152848,-0.049093 -0.238745,-0.049093 -0.0054,0 -0.01069,-1.27e-4 -0.01602,0 z m -14.5624156,0.557072 -0.00207,0.044958 h 0.2216919 l -0.044442,0.907955 H 2.2138386 L 2.2014363,5.0642701 H 1.8800089 L 1.8210978,6.2672974 H 1.577185 L 1.5089721,7.6610108 1.4779662,8.2966309 H 1.721879 L 1.6965576,8.8113282 H 2.4882405 L 2.5037434,8.2966309 H 2.2598307 l 0.018603,-0.6356201 0.041341,-1.3937134 h 0.2439128 l 0.00879,-0.2795695 0.022221,-0.9234578 h 0.050643 L 2.8065673,5.6507976 2.9879516,6.2672974 H 2.7440388 L 3.0592651,7.3369996 H 3.642692 L 3.9915079,6.2672974 H 4.2354207 L 4.436442,5.6507976 4.6209269,5.0642701 h 0.059428 l 0.028939,0.9461955 0.00878,0.2568318 H 4.473649 l 0.045475,1.3937134 0.020671,0.6356201 h 0.2439127 l 0.016536,0.5146973 h 0.822172 L 5.5965779,8.2966309 H 5.3526651 L 5.3211425,7.6610108 5.2518961,6.2672974 H 5.4958089 L 5.4358642,5.0642701 H 5.7572916 L 5.7448893,4.8110556 H 5.1795491 L 5.1340738,3.9031006 H 4.9123819 l -0.00207,-0.044958 h -1.072286 l -0.013953,0.044958 H 4.0457682 L 3.758964,4.8110556 H 4.3243041 L 4.2442057,5.0642701 H 3.9227783 L 3.8452636,5.3097331 3.6364908,6.0559408 3.4282348,5.2642579 3.3662231,5.0642701 H 3.6876505 L 3.6091023,4.8110556 H 3.0437621 L 2.7626424,3.9031006 H 2.5409505 l -0.013953,-0.044958 z m 11.4509776,1.019576 c -0.13097,0.00178 -0.249469,0.017054 -0.35605,0.045475 -0.113686,0.030317 -0.219801,0.074184 -0.318327,0.1322917 -0.0049,0.00276 -0.0096,0.00596 -0.01447,0.00878 h -0.32091 c -0.09308,0.054015 -0.180878,0.1190175 -0.262517,0.1958537 -0.08337,0.080845 -0.164044,0.1707048 -0.242362,0.2692342 l -0.0186,-0.4650879 h 0.320911 l -0.0041,-0.1033529 h -0.799434 v 0.1033529 h -0.321428 v 1.2030273 h -0.243913 v 1.3937134 0.6356201 h 0.243913 V 8.811323 h 0.925008 V 8.2966309 H 11.267547 V 7.6610108 6.3742676 c 0.02761,-0.037697 0.05456,-0.072019 0.08165,-0.1069702 h 0.244429 c 0.129051,-0.166489 0.252039,-0.3038414 0.36897,-0.4082438 0.144005,-0.1263196 0.294498,-0.1896525 0.451135,-0.1896525 0.304276,0 0.460465,0.1998645 0.469222,0.5978963 h -0.244429 c 2.58e-4,0.011769 10e-4,0.023024 10e-4,0.03514 v 1.3585734 0.6356201 h 0.243913 v 0.5146973 h 0.924491 V 8.2966309 H 13.564047 V 7.6610108 6.2672974 h 0.243913 v -0.040824 c 0,-0.2046376 -0.02493,-0.3887223 -0.07545,-0.5529378 C 13.68451,5.5067939 13.611414,5.3649693 13.512885,5.2487553 13.453215,5.1768493 13.384432,5.115794 13.307213,5.0642705 h 0.32091 c -0.0503,-0.033559 -0.103951,-0.063455 -0.161747,-0.088367 -0.146531,-0.065686 -0.318671,-0.098185 -0.515731,-0.098185 -0.0088,0 -0.01763,-1.185e-4 -0.02636,0 z m 12.36152,0 c -0.260216,0 -0.511427,0.023829 -0.75396,0.07183 -0.161223,0.032245 -0.30879,0.071077 -0.444934,0.1147217 h -0.321427 c -0.06653,0.021327 -0.130665,0.04313 -0.191203,0.067179 v 0.738973 c 0.207163,-0.093477 0.420475,-0.1654796 0.640271,-0.2160075 0.222321,-0.053055 0.447519,-0.079582 0.674894,-0.079582 0.144005,0 0.264756,0.015159 0.363286,0.045475 0.09853,0.030317 0.178112,0.073094 0.238745,0.1286743 0.06316,0.055581 0.109149,0.1237944 0.136942,0.2046387 0.02779,0.078318 0.04082,0.1670876 0.04082,0.2656168 v 0.048059 h -0.243913 v 0.1829346 h -0.503845 c -0.318326,0 -0.596059,0.031408 -0.833541,0.094568 -0.234954,0.06316 -0.432016,0.1503215 -0.591179,0.2614827 -0.156634,0.1111613 -0.274115,0.243799 -0.352433,0.3979085 -0.06908,0.1404776 -0.106543,0.2932003 -0.112654,0.4568197 -5.94e-4,0.015878 -0.001,0.031452 -0.001,0.047542 0,0.1768472 0.02492,0.3381942 0.07545,0.484725 0.01294,0.035745 0.02758,0.070163 0.04341,0.1033528 h 0.244429 c 0.04906,0.1028642 0.111182,0.1935041 0.187586,0.2718181 0.101055,0.1035818 0.226114,0.1847719 0.375171,0.2428792 0.149058,0.058107 0.321774,0.086816 0.518831,0.086816 0.149058,0 0.286001,-0.015159 0.409794,-0.045475 0.12632,-0.02779 0.242707,-0.067868 0.348816,-0.1209228 0.106109,-0.053054 0.203033,-0.1152961 0.291455,-0.1860352 0.08842,-0.073266 0.173404,-0.1528478 0.254248,-0.2387451 l 0.02274,0.504362 h 0.7922 V 8.2966309 h -0.24443 V 7.6610108 6.2672974 h 0.243913 v -0.0863 c 0,-0.2172696 -0.03141,-0.4067516 -0.09457,-0.5684408 -0.06319,-0.1642148 -0.161724,-0.300642 -0.295622,-0.4092769 -0.06431,-0.053182 -0.137794,-0.09919 -0.219625,-0.1390096 h 0.320911 c -0.08532,-0.04152 -0.179764,-0.076272 -0.284221,-0.1033529 -0.204638,-0.05558 -0.449873,-0.083199 -0.735355,-0.083199 z m -4.670516,0.00723 c -0.08425,0.00133 -0.160758,0.012791 -0.229444,0.034106 -0.07074,0.022737 -0.137347,0.060634 -0.200504,0.1136882 -0.01217,0.00973 -0.02428,0.020644 -0.03617,0.031523 h -0.32091 c -0.04986,0.045596 -0.09724,0.1006094 -0.142111,0.1658813 -0.05558,0.080845 -0.111335,0.1777675 -0.166915,0.2914551 l -0.0124,-0.4573364 h 0.320911 l -0.0026,-0.1033529 h -0.685746 v 0.1033529 h -0.320911 v 1.2030273 h -0.244429 v 1.3937134 0.6356201 h 0.244429 v 0.5146973 h 0.798918 V 8.2966309 H 19.373512 V 7.6610108 6.3138062 c 0.0065,-0.016755 0.01272,-0.030394 0.01912,-0.046509 h 0.243913 c 0.09099,-0.2292845 0.174578,-0.3964362 0.250114,-0.495577 0.08084,-0.1061085 0.153939,-0.1591634 0.219625,-0.1591634 0.05053,0 0.09164,0.012977 0.121956,0.038241 0.03031,0.022737 0.05254,0.057935 0.0677,0.1059367 0.01515,0.048002 0.02491,0.1086358 0.02997,0.181901 0.0051,0.070739 0.0083,0.1541111 0.0083,0.2501139 v 0.078548 h -0.24443 v 1.3937134 0.6356201 h 0.243913 v 0.5146973 h 0.7922 V 8.2966309 H 20.881947 V 7.6610108 6.3138062 c 0.0063,-0.016711 0.01189,-0.030435 0.01809,-0.046509 h 0.244429 c 0.08844,-0.2293508 0.168434,-0.3964179 0.239262,-0.495577 0.07579,-0.1061085 0.153194,-0.1591634 0.231511,-0.1591634 0.05053,0 0.08951,0.012977 0.117305,0.038241 0.03031,0.022737 0.05305,0.057935 0.06821,0.1059367 0.01515,0.048002 0.02542,0.1086358 0.03049,0.181901 0.0051,0.070739 0.0072,0.1541111 0.0072,0.2501139 v 0.078548 h -0.24443 v 1.3937134 0.6356201 h 0.243913 v 0.5146973 h 0.799985 V 8.2966309 H 22.393999 V 7.6610108 6.2672974 h 0.24443 V 6.0487061 c 0,-0.3840113 -0.06712,-0.6736321 -0.201021,-0.868164 -0.02988,-0.043979 -0.06409,-0.082108 -0.101286,-0.116272 h 0.32091 c -0.12947,-0.1189117 -0.302539,-0.1793172 -0.520381,-0.1793172 -0.0057,0 -0.01143,-8.89e-5 -0.01705,0 -0.08438,0.00133 -0.162006,0.012791 -0.233061,0.034106 -0.07327,0.022737 -0.142569,0.060634 -0.208256,0.1136882 -0.01217,0.00973 -0.02411,0.020644 -0.03617,0.031523 h -0.32091 c -0.05056,0.045596 -0.100391,0.1006094 -0.149345,0.1658813 -0.05811,0.080845 -0.117651,0.1777675 -0.178284,0.2914551 -0.01478,-0.1945363 -0.07662,-0.3468068 -0.185002,-0.4573364 h 0.320911 c -0.0028,-0.00287 -0.0054,-0.00596 -0.0083,-0.00878 -0.111162,-0.1136874 -0.274118,-0.1705322 -0.488859,-0.1705322 -0.0057,0 -0.01144,-8.89e-5 -0.01705,0 z m -17.6955583,0.00775 0.047026,0.1715658 h -0.05116 z m 2.0768758,0 0.00517,0.1715658 h -0.059428 z m 1.7998902,0.068213 V 5.0642701 H 6.4750772 V 5.6807699 H 7.5628661 V 6.2672974 H 7.3189534 V 7.6610108 8.0909587 H 6.0983561 V 8.2966309 H 6.3422688 V 8.8113282 H 9.6206217 V 8.2966309 H 9.3767089 V 8.0909587 H 8.2661824 V 7.6610108 6.2672974 H 8.5100952 V 5.0642701 H 8.8315226 V 4.9609172 Z m 8.5343603,0 v 0.1033529 h -0.321428 v 0.6164998 h 1.087789 v 0.5865275 h -0.244429 v 1.3937134 0.4299479 h -1.220081 v 0.2056722 h 0.243913 v 0.5146973 h 3.277836 V 8.2966309 H 17.910552 V 8.0909587 h -1.11001 V 7.6610108 6.2672974 h 0.243913 V 5.0642701 h 0.321428 V 4.9609172 Z m 9.530167,2.1487121 h 0.564307 v 0.515214 c -0.01217,0.012726 -0.02363,0.023874 -0.03566,0.036174 -0.152666,0.1561669 -0.293905,0.279217 -0.422713,0.3658691 -0.138951,0.093477 -0.272681,0.1400432 -0.401526,0.1400432 -0.174322,0 -0.312355,-0.040595 -0.413411,-0.1214396 -0.101056,-0.083371 -0.151412,-0.2030319 -0.151412,-0.359668 0,-0.00839 6.85e-4,-0.016523 0.001,-0.024805 0.0029,-0.06902 0.01738,-0.134432 0.04444,-0.1953369 0.03284,-0.070739 0.0832,-0.1324641 0.151412,-0.1855184 0.06821,-0.053054 0.156983,-0.09474 0.265617,-0.125057 0.108635,-0.030317 0.241271,-0.045475 0.397908,-0.045475 z" /><path
       id="path404"
       style="font-weight:bold;font-size:29.3333px;font-family:Consolas;-inkscape-font-specification:'Consolas Bold';white-space:pre;display:inline;fill:#ffffff;stroke-width:0.264583;opacity:1"
       d="M 7.2486532 3.554305 C 7.1686832 3.556215 7.0928485 3.5726067 7.0217936 3.6033976 C 6.9485237 3.6337146 6.8841037 3.6770077 6.8285238 3.7325887 C 6.7754738 3.7881696 6.7337838 3.8525931 6.7034668 3.9258586 C 6.6736568 3.9978955 6.6584815 4.0745412 6.6579915 4.1563354 L 6.8796834 4.1563354 C 6.8796749 4.1577311 6.8796834 4.1590708 6.8796834 4.1604696 C 6.8796834 4.2438403 6.8948417 4.322332 6.9251587 4.3955973 C 6.9554757 4.4688633 6.9971617 4.5332865 7.0502157 4.5888672 C 7.1057964 4.6419209 7.1702201 4.6846982 7.2434855 4.7175415 C 7.3192772 4.7478585 7.4004674 4.7630168 7.4863647 4.7630168 C 7.5722627 4.7630168 7.6518444 4.7478575 7.7251099 4.7175415 C 7.7983746 4.6846985 7.8611913 4.6419215 7.9142456 4.5888672 C 7.9698263 4.5332862 8.0131196 4.4688629 8.0434367 4.3955973 C 8.0737537 4.3223316 8.0889119 4.2438404 8.0889119 4.1604696 C 8.0889119 4.1590719 8.0889205 4.1577301 8.0889119 4.1563354 L 7.8672201 4.1563354 C 7.8667201 4.0745395 7.8515448 3.9978956 7.8217448 3.9258586 C 7.7914248 3.8525926 7.7481347 3.788169 7.6925537 3.7325887 C 7.6395038 3.6770078 7.5766829 3.6337147 7.503418 3.6033976 C 7.430148 3.5705547 7.3505698 3.554305 7.2646729 3.554305 C 7.2592729 3.554305 7.2539832 3.554178 7.2486532 3.554305 z M 15.782499 3.554305 C 15.702579 3.556215 15.627211 3.5726067 15.556156 3.6033976 C 15.482886 3.6337146 15.418467 3.6770077 15.362887 3.7325887 C 15.309827 3.7881696 15.268147 3.8525931 15.23783 3.9258586 C 15.20803 3.9978955 15.192854 4.0745412 15.192354 4.1563354 L 15.414046 4.1563354 C 15.414038 4.1577311 15.414046 4.1590708 15.414046 4.1604696 C 15.414046 4.2438403 15.429214 4.322332 15.459521 4.3955973 C 15.489841 4.4688633 15.531524 4.5332866 15.584578 4.5888672 C 15.640158 4.6419209 15.704582 4.6846982 15.777848 4.7175415 C 15.853638 4.7478585 15.934314 4.7630168 16.020211 4.7630168 C 16.106111 4.7630168 16.18569 4.7478575 16.258956 4.7175415 C 16.332226 4.6846985 16.395555 4.6419212 16.448608 4.5888672 C 16.504188 4.5332862 16.546969 4.4688629 16.577283 4.3955973 C 16.607603 4.3223316 16.622758 4.2438404 16.622758 4.1604696 C 16.622758 4.1590719 16.622766 4.1577301 16.622758 4.1563354 L 16.401066 4.1563354 C 16.400566 4.0745405 16.385391 3.9978956 16.355591 3.9258586 C 16.325271 3.8525926 16.282501 3.788169 16.226917 3.7325887 C 16.173857 3.6770078 16.11053 3.6337147 16.037264 3.6033976 C 15.963994 3.5705547 15.884416 3.554305 15.798519 3.554305 C 15.793119 3.554305 15.787829 3.554178 15.782499 3.554305 z M 1.2200806 4.111377 L 1.2180135 4.1563354 L 1.4397054 4.1563354 L 1.3952637 5.0642904 L 1.9606038 5.0642904 L 1.9482015 5.3175049 L 1.6267741 5.3175049 L 1.567863 6.5205322 L 1.3239502 6.5205322 L 1.2557373 7.9142456 L 1.2247314 8.5498657 L 1.4686442 8.5498657 L 1.4433228 9.064563 L 2.2350057 9.064563 L 2.2505086 8.5498657 L 2.0065959 8.5498657 L 2.0251994 7.9142456 L 2.0665405 6.5205322 L 2.3104533 6.5205322 L 2.3192383 6.2409627 L 2.3414591 5.3175049 L 2.3921021 5.3175049 L 2.5533325 5.9040324 L 2.7347168 6.5205322 L 2.490804 6.5205322 L 2.8060303 7.5902344 L 3.3894572 7.5902344 L 3.7382731 6.5205322 L 3.9821859 6.5205322 L 4.1832072 5.9040324 L 4.3676921 5.3175049 L 4.42712 5.3175049 L 4.4560588 6.2637004 L 4.4648437 6.5205322 L 4.2204142 6.5205322 L 4.2658895 7.9142456 L 4.2865601 8.5498657 L 4.5304728 8.5498657 L 4.5470093 9.064563 L 5.3691813 9.064563 L 5.3433431 8.5498657 L 5.0994303 8.5498657 L 5.0679077 7.9142456 L 4.9986613 6.5205322 L 5.2425741 6.5205322 L 5.1826294 5.3175049 L 5.5040568 5.3175049 L 5.4916545 5.0642904 L 4.9263143 5.0642904 L 4.880839 4.1563354 L 4.6591471 4.1563354 L 4.6570801 4.111377 L 3.5847941 4.111377 L 3.5708415 4.1563354 L 3.7925334 4.1563354 L 3.5057292 5.0642904 L 4.0710693 5.0642904 L 3.9909709 5.3175049 L 3.6695435 5.3175049 L 3.5920288 5.5629679 L 3.383256 6.3091756 L 3.175 5.5174927 L 3.1129883 5.3175049 L 3.4344157 5.3175049 L 3.3558675 5.0642904 L 2.7905273 5.0642904 L 2.5094076 4.1563354 L 2.2877157 4.1563354 L 2.273763 4.111377 L 1.2200806 4.111377 z M 12.671061 5.130953 C 12.540091 5.132733 12.421592 5.1480073 12.315011 5.1764282 C 12.201325 5.2067452 12.09521 5.2506122 11.996684 5.3087199 C 11.991784 5.3114799 11.987084 5.3146849 11.982214 5.3175049 L 11.661304 5.3175049 C 11.568224 5.3715198 11.480426 5.4365224 11.398787 5.5133586 C 11.315418 5.5942035 11.234743 5.6840634 11.156425 5.7825928 L 11.137821 5.3175049 L 11.458732 5.3175049 L 11.454598 5.214152 L 10.655164 5.214152 L 10.655164 5.3175049 L 10.333736 5.3175049 L 10.333736 6.5205322 L 10.089823 6.5205322 L 10.089823 7.9142456 L 10.089823 8.5498657 L 10.333736 8.5498657 L 10.333736 9.064563 L 11.258744 9.064563 L 11.258744 8.5498657 L 11.014315 8.5498657 L 11.014315 7.9142456 L 11.014315 6.6275024 C 11.041925 6.5898055 11.068874 6.5554834 11.095964 6.5205322 L 11.340393 6.5205322 C 11.469444 6.3540432 11.592432 6.2166908 11.709363 6.1122884 C 11.853368 5.9859688 12.003861 5.9226359 12.160498 5.9226359 C 12.464774 5.9226359 12.620963 6.1225004 12.62972 6.5205322 L 12.385291 6.5205322 C 12.385549 6.5323012 12.386324 6.5435562 12.386324 6.5556722 L 12.386324 7.9142456 L 12.386324 8.5498657 L 12.630237 8.5498657 L 12.630237 9.064563 L 13.554728 9.064563 L 13.554728 8.5498657 L 13.310815 8.5498657 L 13.310815 7.9142456 L 13.310815 6.5205322 L 13.554728 6.5205322 L 13.554728 6.4797078 C 13.554728 6.2750702 13.529801 6.0909855 13.479281 5.92677 C 13.431281 5.7600283 13.358185 5.6182037 13.259656 5.5019897 C 13.199986 5.4300838 13.131203 5.3690284 13.053984 5.3175049 L 13.374894 5.3175049 C 13.324594 5.2839459 13.270943 5.2540502 13.213147 5.2291382 C 13.066616 5.1634522 12.894476 5.130953 12.697416 5.130953 C 12.688616 5.130953 12.679791 5.1308345 12.671061 5.130953 z M 25.032581 5.130953 C 24.772365 5.130953 24.521154 5.1547823 24.278621 5.2027832 C 24.117398 5.2350282 23.969831 5.2738602 23.833687 5.3175049 L 23.51226 5.3175049 C 23.44573 5.3388319 23.381595 5.3606353 23.321057 5.3846842 L 23.321057 6.1236572 C 23.52822 6.0301803 23.741532 5.9581776 23.961328 5.9076497 C 24.183649 5.8545948 24.408847 5.828068 24.636222 5.828068 C 24.780227 5.828068 24.900978 5.8432273 24.999508 5.8735433 C 25.098038 5.9038603 25.17762 5.9466374 25.238253 6.0022176 C 25.301413 6.0577986 25.347402 6.126012 25.375195 6.2068563 C 25.402985 6.2851742 25.41602 6.3739439 25.41602 6.4724731 L 25.41602 6.5205322 L 25.172107 6.5205322 L 25.172107 6.7034668 L 24.668262 6.7034668 C 24.349936 6.7034668 24.072203 6.7348747 23.834721 6.7980347 C 23.599767 6.8611946 23.402705 6.9483562 23.243542 7.0595174 C 23.086908 7.1706787 22.969427 7.3033164 22.891109 7.4574259 C 22.822029 7.5979035 22.784566 7.7506262 22.778455 7.9142456 C 22.777861 7.9301238 22.777421 7.9456972 22.777421 7.9617879 C 22.777421 8.1386351 22.802339 8.2999821 22.852869 8.4465129 C 22.86581 8.4822582 22.880447 8.5166762 22.896277 8.5498657 L 23.140706 8.5498657 C 23.189766 8.6527299 23.251888 8.7433698 23.328292 8.8216838 C 23.429347 8.9252656 23.554406 9.0064557 23.703463 9.064563 C 23.852521 9.1226699 24.025237 9.1513794 24.222294 9.1513794 C 24.371352 9.1513794 24.508295 9.1362201 24.632088 9.1059041 C 24.758408 9.0781142 24.874795 9.038036 24.980904 8.9849813 C 25.087013 8.9319273 25.183937 8.8696852 25.272359 8.7989461 C 25.360779 8.7256802 25.445763 8.6460983 25.526607 8.560201 L 25.549345 9.064563 L 26.341545 9.064563 L 26.341545 8.5498657 L 26.097115 8.5498657 L 26.097115 7.9142456 L 26.097115 6.5205322 L 26.341028 6.5205322 L 26.341028 6.4342326 C 26.341028 6.216963 26.30962 6.027481 26.24646 5.8657918 C 26.1833 5.7015766 26.084769 5.5651494 25.950871 5.4565145 C 25.886561 5.4033325 25.813077 5.3573244 25.731246 5.3175049 L 26.052157 5.3175049 C 25.966837 5.2759849 25.872393 5.2412331 25.767936 5.214152 C 25.563298 5.1585721 25.318063 5.1309526 25.032581 5.130953 z M 20.362065 5.1381877 C 20.277815 5.1395177 20.201307 5.1509791 20.132621 5.1722941 C 20.061881 5.1950311 19.995274 5.2329281 19.932117 5.2859823 C 19.919947 5.2957122 19.907833 5.3066259 19.895943 5.3175049 L 19.575033 5.3175049 C 19.525173 5.3631008 19.477792 5.4181143 19.432922 5.4833862 C 19.377342 5.5642311 19.321587 5.6611537 19.266007 5.7748413 L 19.253605 5.3175049 L 19.574516 5.3175049 L 19.571932 5.214152 L 18.886186 5.214152 L 18.886186 5.3175049 L 18.565275 5.3175049 L 18.565275 6.5205322 L 18.320846 6.5205322 L 18.320846 7.9142456 L 18.320846 8.5498657 L 18.565275 8.5498657 L 18.565275 9.064563 L 19.364193 9.064563 L 19.364193 8.5498657 L 19.12028 8.5498657 L 19.12028 7.9142456 L 19.12028 6.567041 C 19.12678 6.550286 19.133 6.5366472 19.1394 6.5205322 L 19.383313 6.5205322 C 19.474303 6.2912477 19.557891 6.124096 19.633427 6.0249552 C 19.714267 5.9188467 19.787366 5.8657918 19.853052 5.8657918 C 19.903582 5.8657918 19.944688 5.8787684 19.975008 5.9040324 C 20.005318 5.9267694 20.027544 5.9619674 20.042704 6.0099691 C 20.057854 6.057971 20.067617 6.1186049 20.072677 6.1918701 C 20.077777 6.262609 20.080945 6.3459812 20.080945 6.441984 L 20.080945 6.5205322 L 19.836515 6.5205322 L 19.836515 7.9142456 L 19.836515 8.5498657 L 20.080428 8.5498657 L 20.080428 9.064563 L 20.872628 9.064563 L 20.872628 8.5498657 L 20.628715 8.5498657 L 20.628715 7.9142456 L 20.628715 6.567041 C 20.635015 6.55033 20.640602 6.5366062 20.646802 6.5205322 L 20.891231 6.5205322 C 20.979671 6.2911814 21.059665 6.1241143 21.130493 6.0249552 C 21.206283 5.9188467 21.283687 5.8657918 21.362004 5.8657918 C 21.412534 5.8657918 21.451513 5.8787684 21.479309 5.9040324 C 21.509619 5.9267694 21.532362 5.9619674 21.547522 6.0099691 C 21.562672 6.057971 21.572941 6.1186049 21.578011 6.1918701 C 21.583111 6.262609 21.585246 6.3459812 21.585246 6.441984 L 21.585246 6.5205322 L 21.340816 6.5205322 L 21.340816 7.9142456 L 21.340816 8.5498657 L 21.584729 8.5498657 L 21.584729 9.064563 L 22.38468 9.064563 L 22.38468 8.5498657 L 22.140767 8.5498657 L 22.140767 7.9142456 L 22.140767 6.5205322 L 22.385197 6.5205322 L 22.385197 6.3019409 C 22.385197 5.9179296 22.318076 5.6283088 22.184176 5.4337769 C 22.154296 5.3897979 22.120086 5.3516688 22.08289 5.3175049 L 22.4038 5.3175049 C 22.27433 5.1985932 22.101261 5.1381877 21.883419 5.1381877 C 21.877719 5.1381877 21.871986 5.1380988 21.866366 5.1381877 C 21.781986 5.1395177 21.70436 5.1509791 21.633305 5.1722941 C 21.560035 5.1950311 21.490736 5.2329281 21.425049 5.2859823 C 21.412879 5.2957122 21.400935 5.3066259 21.388875 5.3175049 L 21.067965 5.3175049 C 21.017405 5.3631008 20.967574 5.4181143 20.91862 5.4833862 C 20.86051 5.5642311 20.800969 5.6611537 20.740336 5.7748413 C 20.725556 5.580305 20.663716 5.4280345 20.555334 5.3175049 L 20.876245 5.3175049 C 20.873445 5.3146349 20.870877 5.3115399 20.867977 5.3087199 C 20.756815 5.1950325 20.593859 5.1381877 20.379118 5.1381877 C 20.373418 5.1381877 20.367675 5.1380988 20.362065 5.1381877 z M 2.6665039 5.1459391 L 2.7135295 5.3175049 L 2.6623698 5.3175049 L 2.6665039 5.1459391 z M 4.7433797 5.1459391 L 4.7485474 5.3175049 L 4.6891195 5.3175049 L 4.7433797 5.1459391 z M 6.5432699 5.214152 L 6.5432699 5.3175049 L 6.2218424 5.3175049 L 6.2218424 5.9340047 L 7.3096313 5.9340047 L 7.3096313 6.5205322 L 7.0657186 6.5205322 L 7.0657186 7.9142456 L 7.0657186 8.3441935 L 5.8451213 8.3441935 L 5.8451213 8.5498657 L 6.089034 8.5498657 L 6.089034 9.064563 L 9.3673869 9.064563 L 9.3673869 8.5498657 L 9.1234741 8.5498657 L 9.1234741 8.3441935 L 8.0129476 8.3441935 L 8.0129476 7.9142456 L 8.0129476 6.5205322 L 8.2568604 6.5205322 L 8.2568604 5.3175049 L 8.5782878 5.3175049 L 8.5782878 5.214152 L 6.5432699 5.214152 z M 15.077633 5.214152 L 15.077633 5.3175049 L 14.756205 5.3175049 L 14.756205 5.9340047 L 15.843994 5.9340047 L 15.843994 6.5205322 L 15.599565 6.5205322 L 15.599565 7.9142456 L 15.599565 8.3441935 L 14.379484 8.3441935 L 14.379484 8.5498657 L 14.623397 8.5498657 L 14.623397 9.064563 L 17.901233 9.064563 L 17.901233 8.5498657 L 17.65732 8.5498657 L 17.65732 8.3441935 L 16.54731 8.3441935 L 16.54731 7.9142456 L 16.54731 6.5205322 L 16.791223 6.5205322 L 16.791223 5.3175049 L 17.112651 5.3175049 L 17.112651 5.214152 L 15.077633 5.214152 z M 24.6078 7.3628581 L 25.172107 7.3628581 L 25.172107 7.8780721 C 25.159937 7.8907981 25.14848 7.9019466 25.13645 7.9142456 C 24.983784 8.0704125 24.842545 8.1934626 24.713737 8.2801147 C 24.574786 8.3735917 24.441056 8.4201579 24.312211 8.4201579 C 24.137889 8.4201579 23.999856 8.3795626 23.8988 8.2987183 C 23.797744 8.2153473 23.747388 8.0956864 23.747388 7.9390503 C 23.747388 7.9306602 23.748073 7.9225268 23.748421 7.9142456 C 23.751321 7.8452257 23.765803 7.7798136 23.792863 7.7189087 C 23.825703 7.6481698 23.876063 7.5864446 23.944275 7.5333903 C 24.012485 7.4803364 24.101258 7.4386503 24.209892 7.4083333 C 24.318527 7.3780164 24.451163 7.3628581 24.6078 7.3628581 z " /></g></svg>
